<mxfile host="app.diagrams.net" agent="Mozilla/5.0 (Windows NT 10.0; Win64; x64) AppleWebKit/537.36 (KHTML, like Gecko) Chrome/126.0.0.0 Safari/537.36" version="26.2.8">
  <diagram name="Page-1" id="TFUYaC5l5og9uQdaVZqd">
    <mxGraphModel dx="1164" dy="785" grid="1" gridSize="10" guides="1" tooltips="1" connect="1" arrows="1" fold="1" page="1" pageScale="1" pageWidth="850" pageHeight="1100" math="0" shadow="0">
      <root>
        <mxCell id="0" />
        <mxCell id="1" parent="0" />
        <mxCell id="3ysSC-GGDJVn1ee5TTgG-4" value="" style="edgeStyle=orthogonalEdgeStyle;rounded=0;orthogonalLoop=1;jettySize=auto;html=1;" edge="1" parent="1" source="3ysSC-GGDJVn1ee5TTgG-1" target="3ysSC-GGDJVn1ee5TTgG-2">
          <mxGeometry relative="1" as="geometry" />
        </mxCell>
        <mxCell id="3ysSC-GGDJVn1ee5TTgG-1" value="Main.js init on start" style="rounded=0;whiteSpace=wrap;html=1;" vertex="1" parent="1">
          <mxGeometry x="40" y="40" width="120" height="60" as="geometry" />
        </mxCell>
        <mxCell id="3ysSC-GGDJVn1ee5TTgG-6" value="" style="edgeStyle=orthogonalEdgeStyle;rounded=0;orthogonalLoop=1;jettySize=auto;html=1;" edge="1" parent="1" source="3ysSC-GGDJVn1ee5TTgG-2" target="3ysSC-GGDJVn1ee5TTgG-5">
          <mxGeometry relative="1" as="geometry" />
        </mxCell>
        <mxCell id="3ysSC-GGDJVn1ee5TTgG-2" value="GlobalKeylistener Listens for keys" style="rounded=1;whiteSpace=wrap;html=1;" vertex="1" parent="1">
          <mxGeometry x="220" y="40" width="120" height="60" as="geometry" />
        </mxCell>
        <mxCell id="3ysSC-GGDJVn1ee5TTgG-5" value="" style="rounded=1;whiteSpace=wrap;html=1;" vertex="1" parent="1">
          <mxGeometry x="380" y="40" width="120" height="60" as="geometry" />
        </mxCell>
      </root>
    </mxGraphModel>
  </diagram>
</mxfile>
